<?xml version="1.0" encoding="UTF-8"?>
<svg id="Camada_1" xmlns="http://www.w3.org/2000/svg" version="1.1" viewBox="0 0 450 450">
  <!-- Generator: Adobe Illustrator 30.1.0, SVG Export Plug-In . SVG Version: 2.1.1 Build 136)  -->
  <defs>
    <style>
      .st0 {
        fill: #fff;
        fill-rule: evenodd;
      }

      .st1 {
        fill: #632a07;
      }
    </style>
  </defs>
  <rect class="st1" x="18.25" y="18.25" width="413.49" height="413.49" rx="76.86" ry="76.86"/>
  <path class="st0" d="M331.47,79.49c6.43,3.58,42.6,25.55,38.9,50.6-2.38,15.36-28.05,20.73-38.68,12.37-23.14-17.33-2.61-35.14-21.16-51.12-75.7-59.57-205.43.98-207.92,136.02,0,150.03,160.27,201.47,241.03,119.76,19.27-20.16,31.92-3.57,21.82,5.85-125.98,91.29-294.14,8.79-294.14-125.57,0-145.59,169.56-203.97,260.15-147.91h0ZM315.52,329.5c-7.63,4.62-9.99-2.97-3.36-5.97,27.71-16.73,25.41-36.13,19.01-52.59-13.7-35.22-86.22-42.79-114.68-57.88-56.03-29.71-45.19-88.45-2.61-102.52,22.66-7.35,27.93-2.94,17.04,0-51.79,16.82-26.1,63.98,6.84,71.67,32.99,7.69,75.85,19.6,99.41,45.01,24.84,26.79,33.38,67-21.65,102.28h0ZM249.86,338.25c5.5.08,5.98-5.52.43-5.66-36.53-2.01-40.94-20.45-39.81-43.92,6.89-48.13-54.36-36.16-40.92,0,11.2,30.16,39.4,45.35,80.3,49.58h0Z"/>
</svg>